<svg xmlns="http://www.w3.org/2000/svg" version="1.1" viewBox="-5.0 -10.0 110.0 135.0">
 <g>
  <path d="m78.297 4.0312-1.6562 5.6719h-53.266l-1.6719-5.6719z"/>
  <path d="m34.422 19.453v5.6562h-12.719l1.6719-5.6562z"/>
  <path d="m78.281 25.109h-12.703v-5.6562h11.047z"/>
  <path d="m98.203 90.469v6.1406c0 0.875-0.71875 1.5781-1.5938 1.5781h-93.219c-0.875 0-1.5938-0.70312-1.5938-1.5781v-6.1406c0-0.89062 0.71875-1.5938 1.5938-1.5938h1.0156v-56.062h7.2188v56.062h5.5469l2.4219-4.4062c0.28125-0.5 0.8125-0.8125 1.375-0.8125h58.062c0.5625 0 1.0938 0.3125 1.375 0.8125l2.4219 4.4062h5.5469v-56.062h7.2188v56.062h1.0156c0.875 0 1.5938 0.70312 1.5938 1.5938z"/>
  <path d="m18.953 14.047-3.2031-10.891c-0.25-0.79688-0.98438-1.3438-1.8125-1.3438h-10.484c-1.0469 0-1.8906 0.84375-1.8906 1.8906v21.75c0 1.0625 0.84375 1.8906 1.8906 1.8906h10.484c0.82812 0 1.5625-0.54688 1.8125-1.3438l3.2031-10.891c0.10938-0.34375 0.10938-0.71875 0-1.0625zm-10.156-8.7656c1.2031 0 2.2188 0.85938 2.4375 2 0.03125 0.15625 0.046875 0.3125 0.046875 0.46875 0 0.8125-0.39062 1.5312-0.98438 1.9531-0.42188 0.32812-0.9375 0.51562-1.5 0.51562s-1.0781-0.1875-1.5-0.51562c-0.09375-0.0625-0.17188-0.14062-0.26562-0.21875-0.4375-0.42188-0.71875-1.0469-0.71875-1.7344 0-1.3594 1.1094-2.4688 2.4844-2.4688zm0 18.609c-1.375 0-2.4844-1.125-2.4844-2.4844 0-0.6875 0.28125-1.3125 0.71875-1.7344 0.09375-0.078125 0.17188-0.15625 0.26562-0.21875 0.42188-0.34375 0.9375-0.53125 1.5-0.53125s1.0781 0.1875 1.5 0.53125c0.59375 0.42188 0.98438 1.1406 0.98438 1.9531 0 0.15625 0 0.3125-0.046875 0.46875-0.21875 1.1406-1.2344 2.0156-2.4375 2.0156z"/>
  <path d="m96.547 1.8125h-10.484c-0.82812 0-1.5625 0.54688-1.8125 1.3438l-3.2031 10.891c-0.10938 0.34375-0.10938 0.71875 0 1.0625l3.2031 10.891c0.25 0.79688 0.98438 1.3438 1.8125 1.3438h10.484c1.0469 0 1.8906-0.82812 1.8906-1.8906v-21.75c0-1.0469-0.84375-1.8906-1.8906-1.8906zm-5.3438 22.078c-1.2031 0-2.2188-0.875-2.4375-2.0156-0.03125-0.15625-0.046875-0.3125-0.046875-0.46875 0-0.8125 0.39062-1.5312 0.98438-1.9531 0.42188-0.34375 0.9375-0.53125 1.5-0.53125s1.0781 0.1875 1.5 0.53125c0.09375 0.0625 0.17188 0.14062 0.26562 0.21875 0.4375 0.42188 0.71875 1.0469 0.71875 1.7344 0 1.3594-1.1094 2.4844-2.4844 2.4844zm1.7656-14.406c-0.09375 0.078125-0.17188 0.15625-0.26562 0.21875-0.42188 0.32812-0.9375 0.51562-1.5 0.51562s-1.0781-0.1875-1.5-0.51562c-0.59375-0.42188-0.98438-1.1406-0.98438-1.9531 0-0.15625 0-0.3125 0.046875-0.46875 0.21875-1.1406 1.2344-2 2.4375-2 1.375 0 2.4844 1.1094 2.4844 2.4688 0 0.6875-0.28125 1.3125-0.71875 1.7344z"/>
  <path d="m33.75 54.203h24.438v16.297h-24.438z"/>
  <path d="m63.109 78.562h-25.125l-4.2344-4.9375h25.125z"/>
  <path d="m61.312 47.078v24.516l4.9375 5.7656v-26.031z"/>
  <path d="m47.781 50.656h-14.031v-3.9062h14.031c0.14062 0 0.26562-0.10938 0.26562-0.25v-5.2031h3.9062v5.2031c0 2.2969-1.875 4.1562-4.1719 4.1562z"/>
  <path d="m58.781 16.297h-3.8594v1.9531c0 0.46875-0.375 0.84375-0.84375 0.84375h-8.1406c-0.46875 0-0.84375-0.375-0.84375-0.84375v-1.9531h-3.875c-0.71875 0-1.3125 0.59375-1.3125 1.3281v10.562c0 0.73438 0.59375 1.3125 1.3125 1.3125h1.5312v0.84375c0 0.84375 0.70312 1.5312 1.5469 1.5312h2.8281v0.5c0 0.35938 0.10938 0.70312 0.3125 1l1.875 3.8438c0.34375 0.48438 1.0625 0.48438 1.4062 0l1.875-3.8438c0.20312-0.29688 0.3125-0.64062 0.3125-1v-0.5h2.8281c0.84375 0 1.5312-0.6875 1.5312-1.5312v-0.84375h1.5312c0.73438 0 1.3281-0.57812 1.3281-1.3125v-10.562c0-0.73438-0.59375-1.3281-1.3281-1.3281z"/>
 </g>
<text x="0.0" y="117.5" font-size="5.0" font-weight="bold" font-family="Arbeit Regular, Helvetica, Arial-Unicode, Arial, Sans-serif" fill="#000000">Created by SHAHAREA</text><text x="0.0" y="122.5" font-size="5.0" font-weight="bold" font-family="Arbeit Regular, Helvetica, Arial-Unicode, Arial, Sans-serif" fill="#000000">from Noun Project</text></svg>