<?xml version="1.0" standalone="no"?>
<!DOCTYPE svg PUBLIC "-//W3C//DTD SVG 20010904//EN"
 "http://www.w3.org/TR/2001/REC-SVG-20010904/DTD/svg10.dtd">
<svg version="1.0" xmlns="http://www.w3.org/2000/svg"
 width="2000.000000pt" height="1414.000000pt" viewBox="0 0 2000.000000 1414.000000"
 preserveAspectRatio="xMidYMid meet">

<g transform="translate(0.000000,1414.000000) scale(0.100000,-0.100000)"
fill="#000000" stroke="none">
<path d="M9805 13184 c-575 -21 -1188 -137 -1755 -332 -153 -53 -432 -169
-602 -250 -583 -280 -1122 -657 -1559 -1092 -129 -128 -161 -166 -187 -221
-108 -226 -72 -483 93 -657 119 -126 249 -183 423 -183 191 -1 277 40 471 224
153 145 371 330 506 429 479 351 1099 643 1644 774 466 112 712 143 1186 148
268 3 283 5 351 28 230 80 381 280 392 519 5 120 -9 188 -60 292 -73 145 -231
273 -379 306 -50 11 -376 21 -524 15z"/>
<path d="M12122 12405 c-207 -47 -383 -217 -437 -422 -21 -77 -20 -233 1 -303
75 -256 304 -430 564 -430 256 1 475 160 561 410 29 85 31 237 5 325 -24 80
-77 179 -126 237 -55 64 -176 143 -258 168 -87 28 -227 34 -310 15z"/>
<path d="M10453 11165 c-177 -55 -297 -237 -280 -424 13 -139 119 -284 241
-330 30 -11 106 -32 168 -46 161 -36 347 -89 458 -132 103 -39 333 -139 365
-158 11 -7 67 -38 125 -70 449 -251 850 -624 1138 -1060 156 -236 255 -439
397 -815 38 -100 130 -195 220 -229 280 -105 558 82 557 374 -1 91 -55 262
-157 490 -446 1004 -1209 1748 -2231 2178 -140 59 -489 168 -646 201 -179 39
-281 45 -355 21z"/>
<path d="M8483 11006 c-230 -75 -347 -343 -245 -559 43 -92 100 -150 190 -194
73 -37 80 -38 182 -38 100 0 109 2 175 34 120 59 201 167 226 303 31 170 -66
356 -226 433 -52 25 -74 29 -160 32 -65 2 -115 -2 -142 -11z"/>
<path d="M14166 10535 c-202 -52 -379 -233 -421 -432 -19 -87 -19 -192 0 -271
17 -73 28 -96 100 -212 107 -174 149 -250 240 -435 232 -472 388 -982 450
-1468 58 -468 60 -782 4 -1242 -60 -497 -209 -993 -444 -1485 -96 -199 -115
-261 -115 -375 0 -285 198 -521 480 -571 185 -33 377 29 511 166 56 57 78 91
146 226 249 494 462 1150 547 1684 97 613 99 1241 6 1876 -61 416 -223 978
-406 1408 -156 366 -385 785 -521 953 -49 62 -150 130 -235 159 -93 33 -253
41 -342 19z"/>
<path d="M7146 10020 c-57 -22 -99 -61 -231 -210 -384 -435 -659 -929 -840
-1510 -33 -104 -55 -192 -70 -277 -28 -159 33 -277 174 -333 51 -20 148 -17
202 7 99 44 146 110 174 242 43 208 149 501 265 736 151 307 358 605 583 842
96 102 121 153 120 248 0 82 -18 128 -70 186 -52 58 -104 81 -188 86 -53 2
-82 -2 -119 -17z"/>
<path d="M5005 10016 c-208 -49 -373 -199 -433 -396 -94 -308 67 -626 370
-731 87 -31 239 -37 328 -14 363 94 542 489 378 833 -36 77 -135 184 -212 231
-131 79 -296 108 -431 77z"/>
<path d="M9270 9011 c-132 -70 -130 -251 4 -312 52 -24 90 -23 142 0 106 48
137 182 61 268 -55 63 -139 81 -207 44z"/>
<path d="M11092 8660 c-63 -39 -94 -121 -72 -193 9 -31 37 -66 107 -137 304
-302 465 -646 504 -1073 13 -137 4 -283 -27 -444 -17 -86 -17 -89 3 -134 43
-96 144 -134 233 -87 60 32 84 79 105 203 87 512 -24 1030 -314 1461 -114 171
-296 369 -378 412 -35 19 -124 15 -161 -8z"/>
<path d="M7549 8657 c-56 -21 -107 -56 -133 -90 -61 -81 -176 -344 -244 -557
-86 -271 -142 -687 -128 -960 25 -476 139 -895 349 -1282 80 -147 120 -187
215 -214 130 -38 259 15 330 135 24 41 27 56 27 141 l0 95 -62 110 c-128 225
-220 499 -260 770 -21 149 -24 514 -5 655 37 263 125 542 242 767 49 95 59
157 36 234 -37 124 -133 199 -260 206 -44 2 -85 -2 -107 -10z"/>
<path d="M12360 8161 c-73 -23 -154 -95 -186 -168 -23 -51 -23 -175 0 -226 22
-51 90 -124 141 -150 32 -18 57 -22 130 -22 80 0 95 3 135 27 137 81 190 236
130 376 -28 65 -102 134 -167 156 -48 17 -140 20 -183 7z"/>
<path d="M13419 6692 c-102 -34 -194 -114 -243 -210 -120 -238 24 -528 289
-582 136 -28 277 21 378 130 78 84 101 147 102 275 0 92 -3 105 -33 166 -42
87 -137 178 -219 209 -80 31 -199 36 -274 12z"/>
<path d="M8632 6003 c-13 -3 -43 -23 -66 -46 -51 -49 -64 -99 -46 -168 26 -95
305 -314 565 -443 318 -158 701 -235 1028 -207 155 14 357 53 436 84 120 48
149 182 57 273 -54 55 -97 64 -186 39 -119 -32 -184 -44 -313 -57 -226 -21
-454 11 -702 100 -199 71 -361 168 -530 317 -126 111 -157 124 -243 108z"/>
<path d="M11816 5640 c-195 -78 -241 -344 -85 -484 145 -130 366 -87 456 88
37 70 39 179 5 247 -28 58 -81 113 -135 141 -61 31 -175 35 -241 8z"/>
<path d="M12519 4947 c-81 -23 -141 -68 -304 -226 -256 -249 -505 -429 -807
-582 -277 -140 -546 -235 -830 -293 -282 -58 -401 -70 -688 -70 -281 0 -402
12 -665 65 -226 46 -248 48 -316 39 -174 -25 -309 -159 -341 -340 -27 -154 64
-333 209 -412 92 -50 416 -115 748 -149 176 -18 587 -16 775 5 321 35 506 71
774 151 197 60 237 74 446 163 485 205 951 522 1313 890 139 142 170 192 188
301 12 77 -3 177 -37 248 -34 71 -136 165 -211 193 -70 27 -189 35 -254 17z"/>
<path d="M7176 4859 c-77 -12 -169 -63 -222 -122 -121 -134 -145 -313 -63
-467 94 -177 290 -259 481 -200 84 26 147 68 196 133 49 65 61 88 78 152 61
228 -89 460 -326 505 -59 11 -74 11 -144 -1z"/>
<path d="M5933 3866 c-175 -34 -326 -150 -403 -312 -109 -228 -67 -481 111
-669 186 -196 568 -512 838 -694 591 -399 1197 -671 1906 -856 276 -72 700
-140 1034 -165 214 -16 663 -13 740 5 193 46 354 191 422 381 30 83 37 237 14
324 -49 191 -199 355 -375 412 -59 19 -98 22 -420 29 -215 4 -406 14 -485 23
-529 65 -1004 196 -1464 405 -475 215 -912 509 -1301 876 -157 147 -241 205
-334 229 -87 23 -200 28 -283 12z"/>
<path d="M12524 3131 c-110 -31 -174 -69 -255 -151 -117 -118 -169 -244 -169
-410 0 -167 51 -292 169 -410 117 -118 244 -170 416 -170 168 0 298 55 413
174 114 117 164 243 163 411 0 266 -178 493 -437 559 -81 21 -222 20 -300 -3z"/>
</g>
</svg>
