<?xml version="1.0" encoding="UTF-8"?>
<svg id="Calque_1" data-name="Calque 1" xmlns="http://www.w3.org/2000/svg" viewBox="0 0 622.52 792.77">
  <defs>
    <style>
      .cls-1 {
        fill: #000;
      }

      .cls-1, .cls-2 {
        stroke-width: 0px;
      }

      .cls-2 {
        fill: #fff;
      }
    </style>
  </defs>
  <path class="cls-2" d="M0,273.84h29.51c0,4.72,4.28,8.56,10.77,8.56,5.9,0,10.48-3.39,10.48-8.56,0-5.46-5.02-8.71-10.77-8.71C18.59,265.13.15,249.94.15,231.05s16.68-34.09,40.14-34.09c22.13,0,39.99,15.05,39.99,33.94h-29.36c0-4.58-4.58-8.56-10.63-8.56-6.35,0-10.62,3.39-10.62,8.56s4.28,8.7,10.62,8.7c22.58,0,39.99,15.35,39.99,34.09s-17.41,33.94-39.55,33.94c-24.2,0-40.73-15.79-40.73-33.79"/>
  <path class="cls-2" d="M98.71,263.95v-66.99h29.22v66.55c0,7.97,6.49,14.46,14.46,14.46s14.46-6.49,14.46-14.46v-66.55h29.22v66.99c0,24.35-19.62,43.68-43.68,43.68s-43.68-19.33-43.68-43.68"/>
  <path class="cls-2" d="M256.73,253.18c8.85,0,15.94-6.94,15.94-15.79s-7.08-15.94-15.94-15.94h-18v31.73h18ZM209.66,196.96h46.63c22.43,0,40.73,18.3,40.73,40.73s-18.15,40.58-40.14,40.58h-18.15v29.36h-29.07v-110.67Z"/>
  <path class="cls-2" d="M27.17,414.23c9.54,0,17.33-7.79,17.33-17.33s-7.79-17.24-17.33-17.24h-8.08v34.57h8.08ZM0,360.08h27.07c20.16,0,36.52,16.36,36.52,36.52s-16.36,36.52-36.52,36.52H0v-73.04Z"/>
  <polygon class="cls-2" points="76.73 360.08 122.12 360.08 122.12 375.96 95.92 375.96 95.92 387.84 119.1 387.84 119.1 404.01 95.92 404.01 95.92 417.44 122.12 417.44 122.12 433.12 76.73 433.12 76.73 360.08"/>
  <polygon class="cls-2" points="0 485.57 29.22 485.57 58.29 548.58 87.5 485.57 116.42 485.57 64.93 596.39 51.65 596.39 0 485.57"/>
  <rect class="cls-2" x="130.43" y="485.72" width="29.07" height="110.67"/>
  <polygon class="cls-2" points="183.11 485.72 194.91 485.72 247.29 537.95 247.29 485.72 276.36 485.72 276.36 596.39 264.41 596.39 212.17 544.01 212.17 596.39 183.11 596.39 183.11 485.72"/>
  <path class="cls-2" d="M294.8,541.05c0-30.54,24.79-55.33,55.34-55.33,15.2,0,28.92,6.05,38.95,16.08l-20.36,20.51c-4.87-4.72-11.22-7.23-18.59-7.23-15.05,0-25.97,10.92-25.97,25.97s10.92,25.97,25.97,25.97c7.52,0,14.02-2.66,18.59-7.38l20.66,20.37c-10.33,10.33-24.94,16.38-39.25,16.38-30.55,0-55.34-24.79-55.34-55.34"/>
  <path class="cls-1" d="M45.43,690.19c-2.26,0-4.47-1.1-5.81-3.12-2.13-3.21-1.25-7.53,1.96-9.66l16.97-11.25-17.12-11.38c-3.21-2.13-4.08-6.46-1.94-9.66,2.13-3.2,6.46-4.08,9.66-1.95l25.86,17.19c1.94,1.29,3.11,3.47,3.11,5.81,0,2.33-1.17,4.51-3.12,5.8l-25.72,17.05c-1.18.78-2.52,1.16-3.84,1.16"/>
  <path class="cls-2" d="M130.43,651.66c0-1.01.82-1.83,1.79-1.83s1.83.83,1.83,1.83v28.89c0,1.01-.82,1.84-1.83,1.84s-1.79-.83-1.79-1.84v-28.89Z"/>
  <path class="cls-2" d="M148.04,651.7c0-.96.82-1.79,1.79-1.79h.5c.82,0,1.33.41,1.83,1.05l19.49,24.85v-24.21c0-.96.78-1.79,1.79-1.79s1.74.83,1.74,1.79v28.98c0,.96-.69,1.7-1.65,1.7h-.18c-.78,0-1.33-.46-1.88-1.1l-19.9-25.45v24.85c0,.96-.78,1.79-1.79,1.79s-1.74-.83-1.74-1.79v-28.89Z"/>
  <path class="cls-2" d="M187.44,666.19v-.09c0-8.8,6.47-16.6,16.1-16.6,4.86,0,8.02,1.28,10.96,3.44.41.32.73.83.73,1.47,0,1.01-.82,1.83-1.79,1.83-.41,0-.78-.18-1.15-.46-2.29-1.74-4.86-2.94-8.9-2.94-7.11,0-12.2,6.01-12.2,13.16v.09c0,7.66,4.91,13.34,12.7,13.34,3.67,0,7.06-1.42,9.26-3.21v-7.98h-8.62c-.87,0-1.61-.73-1.61-1.61,0-.92.73-1.65,1.61-1.65h10.32c.96,0,1.79.82,1.79,1.83v9.77c0,.87-.41,1.65-1.24,2.2-2.93,2.15-6.88,3.9-11.65,3.9-10.09,0-16.32-7.34-16.32-16.51"/>
  <path class="cls-2" d="M240.09,646.75c0-.23.09-.5.23-.69l2.75-4.17c.46-.69.96-1.06,1.65-1.06,1.1,0,2.48.73,2.48,1.38,0,.37-.27.69-.64,1.05l-3.44,3.25c-.73.73-1.28.87-2.16.87-.5,0-.87-.28-.87-.64M229.4,680.32v-28.43c0-1.01.82-1.84,1.79-1.84h19.95c.92,0,1.65.73,1.65,1.65s-.73,1.65-1.65,1.65h-18.11v10.96h16.05c.92,0,1.65.78,1.65,1.65,0,.92-.73,1.65-1.65,1.65h-16.05v11.23h18.34c.92,0,1.65.73,1.65,1.65s-.73,1.65-1.65,1.65h-20.18c-.96,0-1.79-.83-1.79-1.83"/>
  <path class="cls-2" d="M264.72,651.7c0-.96.82-1.79,1.79-1.79h.5c.82,0,1.33.41,1.83,1.05l19.49,24.85v-24.21c0-.96.78-1.79,1.79-1.79s1.74.83,1.74,1.79v28.98c0,.96-.69,1.7-1.65,1.7h-.18c-.78,0-1.33-.46-1.88-1.1l-19.9-25.45v24.85c0,.96-.78,1.79-1.79,1.79s-1.74-.83-1.74-1.79v-28.89Z"/>
  <path class="cls-2" d="M305.86,651.66c0-1.01.82-1.83,1.79-1.83s1.83.83,1.83,1.83v28.89c0,1.01-.82,1.84-1.83,1.84s-1.79-.83-1.79-1.84v-28.89Z"/>
  <path class="cls-2" d="M323.47,680.32v-28.43c0-1.01.82-1.84,1.79-1.84h19.95c.92,0,1.65.73,1.65,1.65s-.73,1.65-1.65,1.65h-18.11v10.96h16.05c.92,0,1.65.78,1.65,1.65,0,.92-.73,1.65-1.65,1.65h-16.05v11.23h18.34c.92,0,1.65.73,1.65,1.65s-.73,1.65-1.65,1.65h-20.18c-.96,0-1.79-.83-1.79-1.83"/>
  <path class="cls-2" d="M372.26,666.42c4.81,0,8.25-2.48,8.25-6.6v-.09c0-3.94-3.03-6.33-8.21-6.33h-9.9v13.02h9.86ZM358.78,651.89c0-1.01.82-1.83,1.79-1.83h12.01c3.94,0,7.11,1.19,9.13,3.21,1.56,1.56,2.48,3.81,2.48,6.33v.09c0,5.27-3.58,8.35-8.58,9.31l7.98,10.27c.37.41.59.82.59,1.33,0,.96-.92,1.79-1.83,1.79-.73,0-1.28-.41-1.7-.96l-9.03-11.74h-9.22v10.87c0,1.01-.83,1.83-1.83,1.83s-1.79-.83-1.79-1.83v-28.66Z"/>
  <path class="cls-2" d="M396.85,651.66c0-1.01.82-1.83,1.79-1.83s1.83.83,1.83,1.83v28.89c0,1.01-.82,1.84-1.83,1.84s-1.79-.83-1.79-1.84v-28.89Z"/>
  <path class="cls-2" d="M414.46,680.32v-28.43c0-1.01.82-1.84,1.79-1.84h19.95c.92,0,1.65.73,1.65,1.65s-.73,1.65-1.65,1.65h-18.11v10.96h16.05c.92,0,1.65.78,1.65,1.65,0,.92-.73,1.65-1.65,1.65h-16.05v11.23h18.34c.92,0,1.65.73,1.65,1.65s-.73,1.65-1.65,1.65h-20.18c-.96,0-1.79-.83-1.79-1.83"/>
  <path class="cls-2" d="M141.58,733.84c8.12,0,13.3-5.5,13.3-12.61v-.09c0-7.11-5.18-12.7-13.3-12.7h-7.52v25.4h7.52ZM130.43,706.92c0-1.01.82-1.83,1.79-1.83h9.35c10.09,0,17.06,6.92,17.06,15.96v.09c0,9.04-6.97,16.05-17.06,16.05h-9.35c-.96,0-1.79-.83-1.79-1.84v-28.43Z"/>
  <path class="cls-2" d="M170.88,735.35v-28.43c0-1.01.82-1.83,1.79-1.83h19.95c.92,0,1.65.73,1.65,1.65s-.73,1.65-1.65,1.65h-18.11v10.96h16.05c.92,0,1.65.78,1.65,1.65,0,.92-.73,1.65-1.65,1.65h-16.05v11.23h18.34c.92,0,1.65.73,1.65,1.65s-.73,1.65-1.65,1.65h-20.18c-.96,0-1.79-.83-1.79-1.83"/>
  <path class="cls-2" d="M205.05,733.33c-.41-.27-.69-.78-.69-1.38,0-1.01.78-1.79,1.74-1.79.46,0,.87.18,1.1.41,3.02,2.57,6.05,3.81,10.13,3.81,4.31,0,7.15-2.29,7.15-5.46v-.09c0-2.98-1.61-4.68-8.35-6.1-7.38-1.61-10.78-3.99-10.78-9.26v-.09c0-5.04,4.45-8.76,10.55-8.76,4.22,0,7.29,1.06,10.22,3.17.37.27.78.78.78,1.47,0,.96-.78,1.74-1.74,1.74-.41,0-.73-.09-1.05-.32-2.71-1.97-5.32-2.8-8.3-2.8-4.17,0-6.83,2.29-6.83,5.18v.09c0,3.03,1.65,4.72,8.71,6.24,7.15,1.56,10.45,4.17,10.45,9.08v.09c0,5.5-4.59,9.08-10.96,9.08-4.68,0-8.58-1.47-12.15-4.31"/>
  <path class="cls-2" d="M257.33,733.33c-.41-.27-.69-.78-.69-1.38,0-1.01.78-1.79,1.74-1.79.46,0,.87.18,1.1.41,3.03,2.57,6.05,3.81,10.13,3.81,4.31,0,7.15-2.29,7.15-5.46v-.09c0-2.98-1.61-4.68-8.35-6.1-7.38-1.61-10.78-3.99-10.78-9.26v-.09c0-5.04,4.45-8.76,10.55-8.76,4.22,0,7.29,1.06,10.23,3.17.37.27.78.78.78,1.47,0,.96-.78,1.74-1.74,1.74-.41,0-.73-.09-1.05-.32-2.71-1.97-5.32-2.8-8.3-2.8-4.17,0-6.83,2.29-6.83,5.18v.09c0,3.03,1.65,4.72,8.71,6.24,7.15,1.56,10.45,4.17,10.45,9.08v.09c0,5.5-4.59,9.08-10.96,9.08-4.68,0-8.57-1.47-12.15-4.31"/>
  <path class="cls-2" d="M301.04,724.58l-11.92-16.69c-.23-.37-.41-.78-.41-1.24,0-.96.87-1.79,1.88-1.79.78,0,1.28.46,1.74,1.1l10.59,15.27,10.68-15.27c.46-.64.92-1.1,1.7-1.1,1.01,0,1.79.82,1.79,1.79,0,.46-.28.96-.5,1.33l-11.88,16.51v11.1c0,1.01-.82,1.84-1.83,1.84s-1.83-.82-1.83-1.84v-11Z"/>
  <path class="cls-2" d="M325.67,733.33c-.41-.27-.69-.78-.69-1.38,0-1.01.78-1.79,1.74-1.79.46,0,.87.18,1.1.41,3.03,2.57,6.05,3.81,10.13,3.81,4.31,0,7.15-2.29,7.15-5.46v-.09c0-2.98-1.61-4.68-8.35-6.1-7.38-1.61-10.78-3.99-10.78-9.26v-.09c0-5.04,4.45-8.76,10.55-8.76,4.22,0,7.29,1.06,10.23,3.17.37.27.78.78.78,1.47,0,.96-.78,1.74-1.74,1.74-.41,0-.73-.09-1.05-.32-2.71-1.97-5.32-2.8-8.3-2.8-4.17,0-6.83,2.29-6.83,5.18v.09c0,3.03,1.65,4.72,8.71,6.24,7.15,1.56,10.45,4.17,10.45,9.08v.09c0,5.5-4.59,9.08-10.96,9.08-4.68,0-8.57-1.47-12.15-4.31"/>
  <path class="cls-2" d="M368.55,708.43h-9.31c-.92,0-1.7-.73-1.7-1.65s.78-1.7,1.7-1.7h22.28c.92,0,1.7.78,1.7,1.7s-.78,1.65-1.7,1.65h-9.31v27.15c0,1.01-.82,1.84-1.83,1.84s-1.83-.82-1.83-1.84v-27.15Z"/>
  <path class="cls-2" d="M403.96,701.56l-3.44-3.26c-.37-.37-.64-.69-.64-1.05,0-.64,1.38-1.38,2.48-1.38.69,0,1.19.37,1.65,1.05l2.75,4.17c.14.18.23.46.23.69,0,.37-.37.64-.87.64-.87,0-1.42-.14-2.16-.87M394.37,735.35v-28.43c0-1.01.82-1.83,1.79-1.83h19.95c.92,0,1.65.73,1.65,1.65s-.73,1.65-1.65,1.65h-18.11v10.96h16.05c.92,0,1.65.78,1.65,1.65,0,.92-.73,1.65-1.65,1.65h-16.05v11.23h18.34c.92,0,1.65.73,1.65,1.65s-.73,1.65-1.65,1.65h-20.18c-.96,0-1.79-.83-1.79-1.83"/>
  <path class="cls-2" d="M429.69,706.74c0-.96.82-1.79,1.79-1.79h.41c.78,0,1.33.41,1.7.96l11.46,17.24,11.46-17.24c.37-.59.96-.96,1.7-.96h.41c.96,0,1.79.83,1.79,1.79v28.84c0,1.01-.83,1.84-1.79,1.84s-1.83-.87-1.83-1.84v-23.94l-10.27,15.08c-.41.6-.87.92-1.51.92s-1.15-.32-1.56-.92l-10.23-15.04v23.94c0,1.01-.78,1.79-1.79,1.79s-1.74-.78-1.74-1.79v-28.89Z"/>
  <path class="cls-2" d="M474.08,735.35v-28.43c0-1.01.82-1.83,1.79-1.83h19.95c.92,0,1.65.73,1.65,1.65s-.73,1.65-1.65,1.65h-18.11v10.96h16.05c.92,0,1.65.78,1.65,1.65,0,.92-.73,1.65-1.65,1.65h-16.05v11.23h18.34c.92,0,1.65.73,1.65,1.65s-.73,1.65-1.65,1.65h-20.18c-.96,0-1.79-.83-1.79-1.83"/>
  <path class="cls-2" d="M508.25,733.33c-.41-.27-.69-.78-.69-1.38,0-1.01.78-1.79,1.74-1.79.46,0,.87.18,1.1.41,3.02,2.57,6.05,3.81,10.13,3.81,4.31,0,7.15-2.29,7.15-5.46v-.09c0-2.98-1.61-4.68-8.35-6.1-7.38-1.61-10.78-3.99-10.78-9.26v-.09c0-5.04,4.45-8.76,10.55-8.76,4.22,0,7.29,1.06,10.22,3.17.37.27.78.78.78,1.47,0,.96-.78,1.74-1.74,1.74-.41,0-.73-.09-1.05-.32-2.71-1.97-5.32-2.8-8.3-2.8-4.17,0-6.83,2.29-6.83,5.18v.09c0,3.03,1.65,4.72,8.71,6.24,7.15,1.56,10.45,4.17,10.45,9.08v.09c0,5.5-4.59,9.08-10.96,9.08-4.68,0-8.57-1.47-12.15-4.31"/>
  <path class="cls-2" d="M141.58,788.87c8.12,0,13.3-5.5,13.3-12.61v-.09c0-7.11-5.18-12.7-13.3-12.7h-7.52v25.4h7.52ZM130.43,761.96c0-1.01.82-1.83,1.79-1.83h9.35c10.09,0,17.06,6.92,17.06,15.96v.09c0,9.03-6.97,16.05-17.06,16.05h-9.35c-.96,0-1.79-.82-1.79-1.84v-28.43Z"/>
  <path class="cls-2" d="M169.23,768.7c1.88-.82,2.66-1.97,2.57-3.76-.96-.23-1.79-.96-1.79-2.15v-.73c0-1.19.92-2.16,2.11-2.16,1.33,0,2.25,1.05,2.25,2.52v.87c0,2.8-.6,4.45-1.65,5.5-.96,1.01-2.38,1.7-3.12,1.7-.6,0-.96-.37-.96-.92,0-.41.23-.73.6-.87"/>
  <path class="cls-2" d="M187.03,761.73c0-1.01.82-1.83,1.79-1.83s1.83.83,1.83,1.83v28.89c0,1.01-.82,1.84-1.83,1.84s-1.79-.83-1.79-1.84v-28.89Z"/>
  <path class="cls-2" d="M204.64,761.77c0-.96.82-1.79,1.79-1.79h.5c.82,0,1.33.41,1.83,1.05l19.49,24.85v-24.21c0-.96.78-1.79,1.79-1.79s1.74.83,1.74,1.79v28.98c0,.96-.69,1.7-1.65,1.7h-.18c-.78,0-1.33-.46-1.88-1.1l-19.9-25.45v24.85c0,.96-.78,1.79-1.79,1.79s-1.74-.83-1.74-1.79v-28.89Z"/>
  <path class="cls-2" d="M245.45,761.96c0-1.01.82-1.83,1.79-1.83h19.86c.92,0,1.65.73,1.65,1.65s-.73,1.7-1.65,1.7h-18.02v11.46h15.96c.92,0,1.65.73,1.65,1.65s-.73,1.65-1.65,1.65h-15.96v12.38c0,1.01-.83,1.83-1.84,1.83s-1.79-.83-1.79-1.83v-28.66Z"/>
  <path class="cls-2" d="M307,776.26v-.09c0-7.29-5.32-13.25-12.66-13.25s-12.56,5.87-12.56,13.16v.09c0,7.29,5.32,13.25,12.66,13.25s12.56-5.87,12.56-13.16M278.02,776.26v-.09c0-8.85,6.65-16.6,16.42-16.6s16.32,7.66,16.32,16.51v.09c0,8.85-6.65,16.6-16.42,16.6s-16.32-7.66-16.32-16.51"/>
  <path class="cls-2" d="M336.49,776.49c4.82,0,8.25-2.48,8.25-6.6v-.09c0-3.94-3.03-6.33-8.21-6.33h-9.9v13.02h9.86ZM323.01,761.96c0-1.01.82-1.83,1.79-1.83h12.01c3.94,0,7.11,1.19,9.13,3.21,1.56,1.56,2.48,3.81,2.48,6.33v.09c0,5.27-3.58,8.35-8.58,9.31l7.98,10.27c.37.41.59.82.59,1.33,0,.96-.92,1.79-1.83,1.79-.73,0-1.28-.41-1.7-.96l-9.03-11.74h-9.22v10.87c0,1.01-.82,1.83-1.83,1.83s-1.79-.83-1.79-1.83v-28.66Z"/>
  <path class="cls-2" d="M360.75,761.77c0-.96.82-1.79,1.79-1.79h.41c.78,0,1.33.41,1.7.96l11.46,17.24,11.46-17.24c.37-.6.96-.96,1.7-.96h.41c.96,0,1.79.82,1.79,1.79v28.84c0,1.01-.82,1.84-1.79,1.84s-1.83-.87-1.83-1.84v-23.94l-10.27,15.09c-.41.6-.87.92-1.51.92s-1.15-.32-1.56-.92l-10.23-15.04v23.94c0,1.01-.78,1.79-1.79,1.79s-1.74-.78-1.74-1.79v-28.89Z"/>
  <path class="cls-2" d="M425.88,780.44l-7.38-16.42-7.38,16.42h14.77ZM403.18,789.84l13.02-28.47c.46-1.01,1.15-1.61,2.29-1.61h.18c1.1,0,1.84.59,2.25,1.61l13.02,28.43c.14.32.23.64.23.92,0,.96-.78,1.74-1.74,1.74-.87,0-1.47-.6-1.79-1.33l-3.35-7.38h-17.61l-3.35,7.48c-.32.78-.92,1.24-1.74,1.24-.92,0-1.65-.73-1.65-1.65,0-.27.05-.59.23-.96"/>
  <path class="cls-2" d="M450.23,763.47h-9.31c-.92,0-1.7-.73-1.7-1.65s.78-1.7,1.7-1.7h22.29c.92,0,1.7.78,1.7,1.7s-.78,1.65-1.7,1.65h-9.31v27.15c0,1.01-.83,1.84-1.83,1.84s-1.84-.83-1.84-1.84v-27.15Z"/>
  <path class="cls-2" d="M476.37,761.73c0-1.01.83-1.83,1.79-1.83s1.83.83,1.83,1.83v28.89c0,1.01-.82,1.84-1.83,1.84s-1.79-.83-1.79-1.84v-28.89Z"/>
  <path class="cls-2" d="M521.54,776.26v-.09c0-7.29-5.32-13.25-12.66-13.25s-12.56,5.87-12.56,13.16v.09c0,7.29,5.32,13.25,12.66,13.25s12.56-5.87,12.56-13.16M492.56,776.26v-.09c0-8.85,6.65-16.6,16.42-16.6s16.32,7.66,16.32,16.51v.09c0,8.85-6.65,16.6-16.42,16.6s-16.32-7.66-16.32-16.51"/>
  <path class="cls-2" d="M537.55,761.77c0-.96.82-1.79,1.79-1.79h.5c.82,0,1.33.41,1.83,1.05l19.49,24.85v-24.21c0-.96.78-1.79,1.79-1.79s1.74.83,1.74,1.79v28.98c0,.96-.69,1.7-1.65,1.7h-.18c-.78,0-1.33-.46-1.88-1.1l-19.9-25.45v24.85c0,.96-.78,1.79-1.79,1.79s-1.74-.83-1.74-1.79v-28.89Z"/>
  <path class="cls-2" d="M499.39,61.57c4.76,2.39,10.36,2.75,15.34.93,4.58-1.67,8.31-5,10.5-9.31,4.82-9.4,1.08-20.99-8.34-25.85-4.76-2.39-10.33-2.77-15.34-.93-4.58,1.67-8.27,4.98-10.5,9.31-2.33,4.57-2.77,9.76-1.18,14.65,1.56,4.83,4.93,8.79,9.46,11.13l.06.06Z"/>
  <path class="cls-1" d="M583.98,192.88c1.23,27.23-4.78,54.49-17.44,78.83-4.91,9.4-1.24,21.01,8.16,25.92,4.78,2.46,10.39,2.82,15.44.98,4.51-1.65,8.23-4.88,10.46-9.18,15.77-30.32,23.28-64.37,21.72-98.42,0-.04-.02-.08-.02-.12-.92-19.58-4.83-38.88-11.6-57.42-4.94-13.52-11.34-26.47-19.08-38.48-4.78-7.49-14.34-10.74-22.71-7.69-1.34.49-2.6,1.15-3.79,1.92-4.31,2.76-7.32,7.05-8.39,12.06-1.11,5.02-.17,10.16,2.62,14.45,6.18,9.64,11.32,20.02,15.29,30.91,5.45,14.93,8.59,30.46,9.33,46.13,0,.04.01.08.01.12"/>
  <path class="cls-2" d="M515.59,329.48c-1.26.46-2.51,1.08-3.68,1.79-8.92,5.67-11.61,17.56-5.94,26.49,4.77,7.57,14.39,10.85,22.78,7.78,1.3-.47,2.51-1.08,3.71-1.81,8.93-5.67,11.57-17.55,5.94-26.49-4.82-7.6-14.38-10.85-22.83-7.77"/>
  <path class="cls-1" d="M291.68,337.27c13.6,13.54,29.12,24.98,46.13,33.99.04.02.08.03.12.05.02.01.03.03.05.04,30.25,16.01,64.25,23.74,98.29,22.38,1.98-.07,3.96-.46,5.8-1.14,7.86-2.87,12.96-10.41,12.6-18.78-.2-5.12-2.38-9.88-6.14-13.33-3.77-3.49-8.67-5.29-13.79-5.1-27.27,1.09-54.52-5.14-78.82-17.97-.02-.01-.03-.02-.05-.03-.02-.01-.04-.03-.07-.05-13.65-7.23-26.1-16.41-37.01-27.27-5.45-5.44-13.36-6.91-20.14-4.43-2.56.93-4.96,2.43-7,4.48-7.48,7.51-7.46,19.67.06,27.15"/>
  <path class="cls-1" d="M441.37.11c-19.18-.63-38.33,1.59-56.92,6.6-.04.01-.08.03-.12.04-.02,0-.04,0-.06,0-33.04,8.92-63.18,26.46-87.15,50.67-1.4,1.4-2.58,3.04-3.46,4.78-3.79,7.46-2.37,16.45,3.6,22.33,3.63,3.61,8.48,5.6,13.58,5.56,5.13-.02,9.95-2.05,13.56-5.68,19.2-19.39,43.38-33.42,69.9-40.62.02,0,.04,0,.06-.02.03,0,.05,0,.08-.01,14.92-4.02,30.28-5.8,45.67-5.3,7.69.25,14.48-4.06,17.75-10.5,1.23-2.43,1.97-5.16,2.06-8.06.35-10.6-7.96-19.47-18.55-19.81"/>
  <path class="cls-2" d="M391.02,97.56c1.74-.27,3.4-.87,4.94-1.81.73-.47,1.44-.98,2.08-1.58.64-.6,1.22-1.26,1.74-1.95.55-.73.98-1.46,1.37-2.3.37-.79.64-1.62.85-2.48.22-.85.35-1.72.36-2.58.05-.88.01-1.76-.15-2.64-.11-.86-.34-1.72-.64-2.54-.3-.83-.68-1.63-1.16-2.4-.44-.74-.98-1.44-1.58-2.08-.57-.65-1.22-1.23-1.94-1.74-.73-.55-1.46-.98-2.26-1.38-.82-.35-1.62-.63-2.51-.84-.85-.22-1.72-.35-2.58-.36-.88-.05-1.76-.01-2.61.13-.89.12-1.75.35-2.58.65-.83.3-1.63.68-2.36,1.15-.78.45-1.48.99-2.11,1.59-.65.57-1.23,1.23-1.74,1.94-.51.72-.98,1.46-1.34,2.25-.39.84-.67,1.63-.88,2.53-.18.84-.32,1.71-.37,2.58-.05.88.03,1.75.13,2.61.16.88.35,1.75.66,2.58.3.83.71,1.62,1.15,2.36.49.76.99,1.48,1.59,2.12.6.64,1.26,1.21,1.95,1.74.72.51,1.46.98,2.29,1.33.8.4,1.63.67,2.49.89.84.18,1.71.32,2.59.36.88.05,1.75-.02,2.64-.15"/>
  <path class="cls-1" d="M440.12,76.44c-1.37,7.29,3.44,14.31,10.73,15.68,19.16,3.59,37.05,12.26,51.72,25.06,0,0,0,.01.02.01,13.7,11.97,24.27,27.38,30.55,44.59.4,1.11.79,2.22,1.16,3.33,2.33,7.05,9.92,10.87,16.97,8.55,7.23-2.31,10.88-9.92,8.55-16.97-.46-1.38-.93-2.76-1.43-4.13-7.83-21.45-21.02-40.68-38.12-55.61,0,0-.02-.02-.02-.02-18.29-15.96-40.56-26.76-64.43-31.23-2.46-.46-4.89-.22-7.08.58-4.31,1.57-7.7,5.32-8.6,10.15"/>
  <path class="cls-1" d="M397.45,330.66c23.58,6.02,48.34,5.56,71.67-1.29,2.68-.82,5.43-1.7,8.35-2.76l.07-.03c19.98-7.3,38.14-19.33,52.59-34.82,2.44-2.61,3.73-6.02,3.6-9.61-.13-3.59-1.63-6.93-4.27-9.35-3.73-3.5-9.02-4.55-13.78-2.81-1.99.72-3.72,1.89-5.16,3.44l-.07.02c-11.68,12.56-25.9,21.97-42.2,27.92-2.09.76-4.35,1.51-6.71,2.21-18.72,5.49-38.56,5.87-57.45,1.04-2.62-.68-5.35-.54-7.91.39-4.18,1.53-7.33,5.01-8.41,9.32-.89,3.47-.36,7.08,1.47,10.17,1.83,3.09,4.76,5.29,8.22,6.16"/>
  <path class="cls-2" d="M563.46,228.38c.76-3.51.14-7.12-1.78-10.14-1.96-3.01-4.94-5.14-8.45-5.91-2.5-.56-5.09-.39-7.5.49-4.33,1.58-7.53,5.24-8.5,9.73l-.08.35c-1.38,7.08,3.15,14.1,10.26,15.67,2.53.55,5.13.38,7.5-.49,4.36-1.59,7.54-5.21,8.55-9.7"/>
  <path class="cls-2" d="M334.67,294.82c.6.64,1.23,1.23,1.95,1.74.72.51,1.46.98,2.25,1.35.82.35,1.67.66,2.53.87.84.18,1.71.32,2.59.36.87.05,1.75-.02,2.64-.15,1.74-.27,3.4-.87,4.9-1.79.76-.48,1.48-.99,2.12-1.59.64-.6,1.22-1.26,1.74-1.94.55-.73.97-1.5,1.37-2.3.36-.79.64-1.62.85-2.48.22-.86.35-1.72.36-2.58.04-.91,0-1.8-.15-2.64-.12-.89-.35-1.75-.64-2.54-1.21-3.32-3.74-6.11-6.95-7.6-.82-.35-1.63-.67-2.51-.84-.85-.22-1.72-.35-2.6-.4-.86-.01-1.75.02-2.64.15-.85.15-1.7.38-2.53.68-.83.3-1.63.68-2.37,1.11-.77.48-1.47,1.03-2.12,1.59-.64.6-1.22,1.26-1.73,1.98-.52.68-.98,1.46-1.38,2.26-1.49,3.2-1.64,6.93-.41,10.29.29.79.66,1.6,1.15,2.36.43.74.97,1.44,1.59,2.12"/>
  <path class="cls-1" d="M348.8,152.72c-.07.12-.11.2-.18.32-7.81,14.69-11.62,31.26-11.02,47.99v.15c.57,15.69,5.04,31.08,12.94,44.55,1.31,2.22,3.36,3.8,5.85,4.44,2.48.64,5.08.28,7.26-.99,3.09-1.8,4.89-5.09,4.76-8.66-.06-1.57-.5-3.13-1.32-4.49l-.25-.41c-6.23-10.8-9.61-22.63-10.06-35.21-.49-13.47,2.6-26.83,8.94-38.62.79-1.49,1.19-3.19,1.13-4.88-.12-3.41-2.08-6.49-5.06-8.12-1.49-.79-3.15-1.19-4.8-1.13-3.22.08-6.2,1.8-7.87,4.47v-.04s-.33.63-.33.63Z"/>
  <path class="cls-2" d="M523.69,171.18l-.07-.18c-.74-2.47-2.38-4.49-4.65-5.66-2.24-1.22-4.87-1.49-7.29-.73-.19.03-.37.1-.55.16-4.76,1.74-7.32,6.93-5.87,11.79.74,2.47,2.41,4.47,4.65,5.7,2.28,1.21,4.86,1.45,7.33.71,4.96-1.53,7.86-6.79,6.44-11.8"/>
  <path class="cls-2" d="M506.73,253.25l-.07-.18c-.74-2.47-2.38-4.49-4.65-5.66-2.24-1.22-4.87-1.49-7.29-.73-.19.03-.37.1-.55.16-4.76,1.74-7.32,6.92-5.87,11.79.74,2.47,2.41,4.47,4.65,5.7,2.28,1.21,4.86,1.45,7.33.72,4.96-1.53,7.86-6.79,6.44-11.8"/>
  <path class="cls-2" d="M411.74,147.45c.35.08.74.14,1.12.16.37-.01.73-.02,1.12-.08,1.9-.28,3.53-1.53,4.33-3.25.65-1.34.72-2.96.19-4.4-.51-1.41-1.6-2.6-2.98-3.24-1.38-.64-2.96-.72-4.4-.19-.36.13-.71.3-1.01.49-.33.2-.62.43-.89.69-.27.26-.54.52-.75.85-.22.29-.43.61-.59.95-.16.35-.27.71-.38,1.08-.07.35-.13.75-.13,1.11-.03.38-.02.74.05,1.13.06.39.14.73.27,1.09.53,1.44,1.61,2.6,2.98,3.24.34.16.71.27,1.08.38"/>
  <path class="cls-1" d="M497.3,213.6c.21-.41.39-.84.49-1.29.02-.09.02-.18.03-.27,2.64-12.13,1.78-24.72-2.49-36.43-3.79-10.38-10.17-19.68-18.44-26.91-1.64-1.43-3.86-1.77-5.77-1.07-.88.32-1.7.87-2.36,1.62-2.09,2.39-1.85,6.03.55,8.12,6.82,5.96,12.07,13.63,15.2,22.19,3.55,9.73,4.25,20.19,2.02,30.25-.37,1.68.04,3.33.98,4.62.79,1.1,1.96,1.94,3.37,2.25,0,0,0,0,.01,0,0,0,0,0,0,0,2.64.59,5.24-.75,6.39-3.07"/>
  <path class="cls-1" d="M386.9,244.19c.07.09.13.2.21.29l.2.21c.11.08.19.17.25.23,17.02,16.71,41.76,22.92,64.57,16.22,3.06-.91,4.79-4.12,3.93-7.16-.46-1.47-1.44-2.7-2.77-3.44-1.37-.72-2.94-.89-4.41-.43-18.79,5.51-39.17.41-53.19-13.35-.07-.09-.17-.14-.25-.23l-.08-.1c-.09-.08-.2-.13-.29-.2-.4-.35-.82-.66-1.3-.89-.35-.16-.71-.27-1.08-.38-.39-.06-.74-.13-1.12-.16-.36,0-.76.03-1.11.08-.39.06-.76.15-1.12.29-.33.12-.67.29-1.01.49-.3.19-.62.43-.9.66-.27.26-.53.56-.75.85-.21.32-.42.64-.58.99-.16.35-.28.68-.34,1.07-.11.37-.15.71-.18,1.09-.01.41,0,.78.06,1.16.05.35.14.73.27,1.09.13.36.29.67.49,1.01.15.24.32.43.49.64"/>
  <path class="cls-1" d="M312.52,180.72c-.66,0-1.34-.07-2.01-.22-5.01-1.11-8.18-6.07-7.07-11.08,5.3-23.99,17.21-46.03,34.44-63.74,3.58-3.68,9.46-3.76,13.14-.18,3.68,3.58,3.76,9.46.18,13.14-14.82,15.23-25.06,34.17-29.61,54.79-.96,4.33-4.8,7.29-9.06,7.29Z"/>
  <path class="cls-2" d="M266.34,139.77c4.76,2.39,10.36,2.75,15.34.93,4.58-1.67,8.31-5,10.5-9.31,4.82-9.4,1.08-20.99-8.34-25.85-4.76-2.39-10.33-2.77-15.34-.94-4.58,1.67-8.27,4.98-10.5,9.31-2.33,4.57-2.77,9.76-1.18,14.65,1.56,4.83,4.93,8.79,9.46,11.14l.06.06Z"/>
  <rect class="cls-2" x="408.55" y="485.72" width="29.07" height="110.67"/>
</svg>